<svg version="1.1" viewBox="0.0 0.0 500.0 500.0" fill="none" stroke="none" stroke-linecap="square" stroke-miterlimit="10" xmlns:xlink="http://www.w3.org/1999/xlink" xmlns="http://www.w3.org/2000/svg"><clipPath id="p.0"><path d="m0 0l500.0 0l0 500.0l-500.0 0l0 -500.0z" clip-rule="nonzero"/></clipPath><g clip-path="url(#p.0)"><path fill="#000000" fill-opacity="0.0" d="m0 0l500.0 0l0 500.0l-500.0 0z" fill-rule="evenodd"/><path fill="#00264b" d="m418.3871 180.1098l0 0c-38.597717 -93.005104 -145.2829 -137.11101 -238.28801 -98.51328c-93.005104 38.597725 -137.11101 145.2829 -98.51328 238.288l84.200325 -34.943665c-19.298859 -46.502563 2.7540894 -99.84515 49.256638 -119.14401c46.502563 -19.298859 99.84515 2.7540894 119.14401 49.256638z" fill-rule="evenodd"/><path fill="#00264b" d="m81.53992 70.54082l-11.016838 11.014778l0 0c-6.3178253 6.316635 -9.867516 14.884216 -9.868183 23.817963c-6.67572E-4 8.933746 3.5477486 17.501854 9.864628 23.819435l33.19536 33.19905c2.670288E-4 2.746582E-4 7.019043E-4 2.746582E-4 9.765625E-4 0l58.658623 -58.64862l0 0c2.746582E-4 -2.670288E-4 2.746582E-4 -7.019043E-4 0 -9.765625E-4l-33.195343 -33.198074l0 0c-13.154228 -13.155689 -34.483032 -13.15728 -47.63922 -0.0035552979z" fill-rule="evenodd"/><path fill="#00264b" d="m429.44278 81.550644l-11.0147705 -11.016838l0 0c-6.3166504 -6.3178253 -14.884216 -9.867519 -23.817963 -9.868183c-8.933746 -6.67572E-4 -17.501862 3.547741 -23.819458 9.864628l-33.199036 33.19535c-2.746582E-4 2.746582E-4 -2.746582E-4 7.095337E-4 0 9.765625E-4l58.64862 58.65863l0 0c2.746582E-4 2.746582E-4 7.019043E-4 2.746582E-4 9.765625E-4 0l33.19809 -33.19536l0 0c13.15567 -13.154213 13.157257 -34.483017 0.003540039 -47.639206z" fill-rule="evenodd"/><path fill="#00264b" d="m257.78076 3.9924273l-15.616226 -0.0015835762l0 0c-8.931473 -9.0551376E-4 -17.49704 3.5462399 -23.812378 9.861105c-6.315338 6.314866 -9.863113 14.88017 -9.862869 23.811646l0.0012817383 46.9351c0 3.8146973E-4 3.0517578E-4 6.942749E-4 6.866455E-4 6.942749E-4l82.96788 0.0077209473l0 0c3.6621094E-4 0 6.713867E-4 -3.1280518E-4 6.713867E-4 -6.942749E-4l-0.001953125 -46.93441l0 0c-5.187988E-4 -18.598831 -15.078247 -33.677692 -33.677094 -33.679577z" fill-rule="evenodd"/><path fill="#00264b" d="m3.9915345 257.8093l0.0015833378 -15.616226l0 0c9.057522E-4 -8.931473 3.5497885 -17.497238 9.865934 -23.812912c6.316146 -6.315674 14.882169 -9.863922 23.813644 -9.864166l46.9351 -0.0012817383c3.8146973E-4 0 6.942749E-4 3.2043457E-4 6.942749E-4 7.019043E-4l-0.009101868 82.967865l0 0c0 3.6621094E-4 -3.1280518E-4 7.019043E-4 -6.942749E-4 7.019043E-4l-46.93441 5.79834E-4l0 0c-18.598833 4.8828125E-4 -33.674637 -15.076416 -33.67275 -33.675262z" fill-rule="evenodd"/><path fill="#00264b" d="m362.95773 203.11333l0 0c-25.892944 -62.391647 -97.46176 -91.97971 -159.85341 -66.08676c-62.391663 25.892944 -91.97972 97.46176 -66.08678 159.85341l56.485046 -23.44165c-12.946472 -31.195831 1.8475647 -66.98024 33.043396 -79.92671c31.195831 -12.946472 66.980225 1.8475494 79.9267 33.04338z" fill-rule="evenodd"/><path fill="#01472d" d="m81.58579 319.88452l0 0c38.597725 93.0051 145.2829 137.111 238.28802 98.513275c93.0051 -38.597717 137.111 -145.2829 98.513275 -238.288l-84.20032 34.94368c19.298859 46.50255 -2.7540894 99.84514 -49.256653 119.144c-46.50255 19.298859 -99.84514 -2.7540894 -119.144 -49.256622z" fill-rule="evenodd"/><path fill="#01472d" d="m418.43295 429.45352l11.016846 -11.014801l0 0c6.31781 -6.31662 9.867523 -14.884216 9.868164 -23.817963c6.713867E-4 -8.933746 -3.5477295 -17.501862 -9.864624 -23.819427l-33.195343 -33.199066c-2.746582E-4 -2.746582E-4 -7.019043E-4 -2.746582E-4 -9.765625E-4 0l-58.65863 58.64862l0 0c-2.746582E-4 2.746582E-4 -2.746582E-4 7.324219E-4 0 9.765625E-4l33.195343 33.19809l0 0c13.154236 13.155701 34.483032 13.157288 47.63922 0.0035705566z" fill-rule="evenodd"/><path fill="#01472d" d="m70.53009 418.4437l11.014778 11.016815l0 0c6.3166428 6.3178406 14.884216 9.867523 23.817963 9.868195c8.933746 6.713867E-4 17.501854 -3.54776 23.819435 -9.864624l33.199066 -33.195374c2.593994E-4 -2.4414062E-4 2.593994E-4 -7.019043E-4 0 -9.765625E-4l-58.64863 -58.65863l0 0c-2.746582E-4 -2.4414062E-4 -7.095337E-4 -2.4414062E-4 -9.841919E-4 0l-33.198074 33.195374l0 0c-13.155685 13.154205 -13.15728 34.483032 -0.0035552979 47.63922z" fill-rule="evenodd"/><path fill="#01472d" d="m242.19211 496.0019l15.616241 0.0015869141l0 0c8.9314575 9.1552734E-4 17.49704 -3.5462341 23.812378 -9.8611145c6.3153076 -6.31485 9.863098 -14.880157 9.862854 -23.811646l-0.0012817383 -46.93509c0 -3.9672852E-4 -3.0517578E-4 -7.019043E-4 -6.713867E-4 -7.019043E-4l-82.96788 -0.0077209473l0 0c-3.8146973E-4 0 -6.866455E-4 3.0517578E-4 -6.866455E-4 7.019043E-4l0.0019683838 46.934418l0 0c5.0354004E-4 18.598816 15.078247 33.677673 33.67708 33.679565z" fill-rule="evenodd"/><path fill="#01472d" d="m495.98135 242.18503l-0.0015869141 15.616241l0 0c-9.1552734E-4 8.9314575 -3.5498047 17.497223 -9.865936 23.812897c-6.316162 6.315674 -14.882172 9.863922 -23.81366 9.864166l-46.93509 0.0012817383c-3.9672852E-4 0 -7.019043E-4 -3.0517578E-4 -7.019043E-4 -7.019043E-4l0.009094238 -82.967865l0 0c0 -3.8146973E-4 3.3569336E-4 -6.866455E-4 7.019043E-4 -6.866455E-4l46.934418 -5.79834E-4l0 0c18.598816 -5.187988E-4 33.67462 15.076416 33.67276 33.675247z" fill-rule="evenodd"/><path fill="#01472d" d="m137.01755 296.87997l0 0c25.892944 62.391663 97.46176 91.97974 159.85342 66.08679c62.391663 -25.892944 91.979706 -97.46176 66.08676 -159.85344l-56.485046 23.441666c12.946472 31.195831 -1.8475342 66.980255 -33.043365 79.92673c-31.195847 12.946472 -66.980255 -1.8475647 -79.92673 -33.043396z" fill-rule="evenodd"/></g></svg>