<svg version="1.1" viewBox="0.0 0.0 500.0 500.0" fill="none" stroke="none" stroke-linecap="square" stroke-miterlimit="10" xmlns:xlink="http://www.w3.org/1999/xlink" xmlns="http://www.w3.org/2000/svg"><clipPath id="p.0"><path d="m0 0l500.0 0l0 500.0l-500.0 0l0 -500.0z" clip-rule="nonzero"/></clipPath><g clip-path="url(#p.0)"><path fill="#000000" fill-opacity="0.0" d="m0 0l500.0 0l0 500.0l-500.0 0z" fill-rule="evenodd"/><path fill="#27527d" d="m418.52963 180.35486l0 0c-38.466827 -93.06552 -145.09485 -137.32652 -238.16037 -98.8597c-93.06552 38.466812 -137.32652 145.09485 -98.85971 238.16037l84.25502 -34.825165c-19.233414 -46.53276 2.8970947 -99.84677 49.429855 -119.080185c46.532776 -19.233398 99.84677 2.8970947 119.0802 49.429855z" fill-rule="evenodd"/><path fill="#27527d" d="m81.82042 70.29782l-11.033218 10.999634l0 0c-6.3272095 6.307953 -9.889362 14.870934 -9.902809 23.805176c-0.013450623 8.934242 3.5229034 17.507904 9.8311 23.834885l33.14971 33.248398c2.670288E-4 2.746582E-4 7.019043E-4 2.746582E-4 9.765625E-4 0l58.74582 -58.56797l0 0c2.746582E-4 -2.746582E-4 2.746582E-4 -7.095337E-4 0 -9.765625E-4l-33.14972 -33.24743l0 0c-13.136131 -13.175243 -34.466118 -13.207352 -47.64186 -0.07171631z" fill-rule="evenodd"/><path fill="#27527d" d="m429.72696 81.806015l-10.999634 -11.033211l0 0c-6.307953 -6.327217 -14.870911 -9.889362 -23.805176 -9.902813c-8.934235 -0.013446808 -17.507904 3.5229073 -23.83487 9.831097l-33.248413 33.14971c-2.746582E-4 2.746582E-4 -2.746582E-4 7.095337E-4 0 9.841919E-4l58.567993 58.74581l0 0c2.4414062E-4 2.746582E-4 7.019043E-4 2.746582E-4 9.765625E-4 0l33.247406 -33.149704l0 0c13.175262 -13.136139 13.207367 -34.466133 0.07171631 -47.641876z" fill-rule="evenodd"/><path fill="#27527d" d="m258.16632 3.9978678l-15.617096 -0.02392602l0 0c-8.931976 -0.013684273 -17.503098 3.5214047 -23.82782 9.827587c-6.3247223 6.306183 -9.884949 14.86689 -9.897491 23.798862l-0.06587219 46.937725c0 3.8146973E-4 3.0517578E-4 6.942749E-4 6.866455E-4 6.942749E-4l82.9725 0.1264267l0 0c3.6621094E-4 0 6.713867E-4 -3.0517578E-4 6.713867E-4 -6.942749E-4l0.06518555 -46.937035l0 0c0.026123047 -18.59987 -15.030884 -33.701145 -33.630768 -33.72964z" fill-rule="evenodd"/><path fill="#27527d" d="m3.9997704 257.46582l0.02392602 -15.617096l0 0c0.013683796 -8.931976 3.5750203 -17.493134 9.900555 -23.80014c6.325535 -6.3069916 14.897114 -9.84317 23.829086 -9.830643l46.937725 0.06587219c3.8146973E-4 0 6.942749E-4 3.2043457E-4 6.942749E-4 7.019043E-4l-0.12780762 82.97247l0 0c0 3.9672852E-4 -3.1280518E-4 7.019043E-4 -6.942749E-4 7.019043E-4l-46.937035 -0.06655884l0 0c-18.599873 -0.026123047 -33.654945 -15.125427 -33.62645 -33.72531z" fill-rule="evenodd"/><path fill="#27527d" d="m363.0643 203.28038l0 0c-25.805145 -62.43219 -97.3356 -92.1243 -159.7678 -66.31917c-62.43219 25.805115 -92.1243 97.3356 -66.31917 159.76779l56.521744 -23.362152c-12.902573 -31.216095 1.9434814 -66.98134 33.159576 -79.883896c31.21611 -12.902573 66.98134 1.9434814 79.883896 33.159576z" fill-rule="evenodd"/><path fill="#2d8a3e" d="m81.50955 319.65552l0 0c38.46682 93.06552 145.09485 137.32654 238.16037 98.85971c93.06552 -38.466797 137.32654 -145.09485 98.85971 -238.16037l-84.255005 34.825165c19.233398 46.532776 -2.8970947 99.84677 -49.42987 119.0802c-46.53276 19.233398 -99.84677 -2.8970947 -119.080185 -49.42987z" fill-rule="evenodd"/><path fill="#2d8a3e" d="m418.21878 429.71255l11.033203 -10.999603l0 0c6.3272095 -6.307953 9.889374 -14.870941 9.9028015 -23.805176c0.013458252 -8.934265 -3.5228882 -17.507935 -9.831085 -23.8349l-33.14972 -33.248413c-2.746582E-4 -2.4414062E-4 -7.019043E-4 -2.4414062E-4 -9.765625E-4 0l-58.74582 58.567993l0 0c-2.746582E-4 2.746582E-4 -2.746582E-4 7.019043E-4 0 9.765625E-4l33.14972 33.247406l0 0c13.136139 13.175262 34.466125 13.207367 47.641876 0.07171631z" fill-rule="evenodd"/><path fill="#2d8a3e" d="m70.31222 418.20438l10.999634 11.033203l0 0c6.307953 6.3272095 14.870934 9.889374 23.805176 9.902832c8.934242 0.013427734 17.507912 -3.5229187 23.834877 -9.831116l33.248413 -33.14972c2.593994E-4 -2.4414062E-4 2.593994E-4 -7.019043E-4 0 -9.765625E-4l-58.567978 -58.74582l0 0c-2.670288E-4 -2.746582E-4 -7.095337E-4 -2.746582E-4 -9.765625E-4 0l-33.24743 33.14972l0 0c-13.17524 13.136139 -13.207348 34.466125 -0.07171631 47.641876z" fill-rule="evenodd"/><path fill="#2d8a3e" d="m241.87286 496.0125l15.617096 0.023925781l0 0c8.931976 0.013702393 17.503113 -3.5213928 23.82782 -9.827576c6.3247375 -6.306183 9.884949 -14.866882 9.897491 -23.798859l0.06588745 -46.937744c0 -3.6621094E-4 -3.0517578E-4 -6.713867E-4 -7.019043E-4 -6.713867E-4l-82.97249 -0.12643433l0 0c-3.8146973E-4 0 -7.019043E-4 3.0517578E-4 -7.019043E-4 7.019043E-4l-0.06518555 46.93701l0 0c-0.02609253 18.599884 15.030914 33.70117 33.630783 33.729645z" fill-rule="evenodd"/><path fill="#2d8a3e" d="m496.03943 242.54457l-0.023925781 15.617111l0 0c-0.013702393 8.931976 -3.5750427 17.493134 -9.900574 23.80011c-6.325531 6.307007 -14.897095 9.843201 -23.829071 9.830658l-46.937744 -0.06588745c-3.6621094E-4 0 -6.713867E-4 -3.0517578E-4 -6.713867E-4 -6.713867E-4l0.12780762 -82.9725l0 0c0 -3.8146973E-4 3.0517578E-4 -6.866455E-4 6.713867E-4 -6.866455E-4l46.937042 0.06655884l0 0c18.599884 0.026107788 33.654938 15.1254425 33.626465 33.72531z" fill-rule="evenodd"/><path fill="#2d8a3e" d="m136.97733 296.729l0 0c25.805115 62.43219 97.3356 92.1243 159.76779 66.31918c62.43219 -25.805145 92.1243 -97.3356 66.31918 -159.7678l-56.52176 23.362152c12.902557 31.21611 -1.9434814 66.98134 -33.159576 79.883896c-31.216095 12.902588 -66.98134 -1.9434814 -79.883896 -33.159576z" fill-rule="evenodd"/><path fill="#000000" fill-opacity="0.0" d="m436.0372 173.11143l-371.937 153.76378" fill-rule="evenodd"/><path stroke="#ffffff" stroke-width="24.0" stroke-linejoin="round" stroke-linecap="butt" d="m436.0372 173.11143l-371.937 153.76378" fill-rule="evenodd"/></g></svg>